# xmcd
#
# Track frame offsets:
#	150
#	17509
#	35674
#	46791
#	65415
#	77953
#	99978
#	111822
#	129933
#	142688
#	159855
#	179466
#
# Disc length: 2566 seconds
#
# Revision: 1
# Processed by: cddbd v1.5.2PL0 Copyright (c) Steve Scherf et al.
# Submitted via: audiograbber 1.83.01
#
DISCID=8b0a040c
DTITLE=Variado - Os Melhores Vaneirões Gaúchos Vol 2
DYEAR=2000
DGENRE=Gaúcho
TTITLE0=Garotos de Ouro - Madrugada
TTITLE1=Porca Véia - Sentado sobre um arreio
TTITLE2=Edson Dutra - Mistura fina
TTITLE3=Marcello Caminha - Tertúlia
TTITLE4=Marcio Correia - Lá nas guria
TTITLE5=Garotos de Ouro - Vaneira das Missões
TTITLE6=Diego Bilia - Vinte de setembro
TTITLE7=Bando Gaúcho - Se preparando pra Semana Farroupilha
TTITLE8=Marcio Correia - Temperando a vaneira
TTITLE9=Garotos de Ouro - Fandango do Tio Bino
TTITLE10=Jorge Guedes - Entrando no M'bororé
TTITLE11=Tchê Sarandeio - Embalo campeiro
EXTD=
EXTT0=
EXTT1=
EXTT2=
EXTT3=
EXTT4=
EXTT5=
EXTT6=
EXTT7=
EXTT8=
EXTT9=
EXTT10=
EXTT11=
PLAYORDER=
